<?xml version="1.0" encoding="UTF-8"?>
<svg width="512" height="512" shape-rendering="crispEdges" version="1.1" viewBox="0 0 512 512" xmlns="http://www.w3.org/2000/svg" xmlns:cc="http://creativecommons.org/ns#" xmlns:dc="http://purl.org/dc/elements/1.1/" xmlns:rdf="http://www.w3.org/1999/02/22-rdf-syntax-ns#">
 <metadata>
  <rdf:RDF>
   <cc:Work rdf:about="">
    <dc:format>image/svg+xml</dc:format>
    <dc:type rdf:resource="http://purl.org/dc/dcmitype/StillImage"/>
    <dc:title/>
   </cc:Work>
  </rdf:RDF>
 </metadata>
 <g>
  <circle cx="257.72" cy="253.78" r="236.72" fill="#272828" style="paint-order:stroke markers fill"/>
  <path d="m228.12 88.277c-8.686-0.25636-25.405 22.65-22.151 21.999-8.346 4.6173-17.724 12.92-19.29 23.474-7.0094 10.334-11.588 20.669-13.726 31.003-10.613 4.3146-20.012 9.842-29.011 15.771-15.16-38.044-59.112-62.223-65.289-58.13-4.8975 3.2451-6.1643 35.18 0.48365 48.281-2.1425 14.187 3.4129 24.988 9.6881 35.524 0 0-10.925 11.034-12.863 15.448-1.9377 4.4137-0.31555 5.6449-2.9079 9.1498-10.589 14.317-20.172 49.812-13.779 52.372 13.645 5.463 58.217-18.027 75.446-38.617l6.3935 18.04s-6.8505 6.7758-6.6983 11.876c0.15223 5.1 4.5361 10.124 4.9471 12.331 4.3096 23.135 22.147 70.6 38.811 79.422 0 0-0.49186 24.165 5.5976 26.285 9.3238 3.2462 46.959-8.4462 70.509-26.59 15.986 4.4098 32.08 4.5311 49.197 3.854 0 0-16.824 15.774-18.648 21.085-0.83436 2.4285 0.98915 1.5982 0.83691 4.4908-0.15224 2.8926-12.153 27.125-6.8514 26.033 37-7.6155 69.651-58.536 69.651-58.536 13.066-1.7224 98.43-28.625 106.42-59.526 1.7754-6.8698-1.6513-25.552-3.6933-28.712-1.3796-2.1351-5.418-8.8464-13.054-6.8362-7.2641 1.9123-13.2 19.642-18.04 32.58-4.5541-2.0236-6.8499-11.647-6.8499-11.647-8.1156 5.6222-10.786 14.88-14.235 22.836l-6.5467-9.1347c-2.8418 2.3586-5.6834 5.2818-8.5252 8.4494l-1.2174-2.3591s6.5372-8.0366 10.808-10.581c1.2571 2.1922 4.9471 7.6883 4.9471 7.6883 2.7742-9.318 8.7414-17.953 16.899-21.694 0.94767 2.9186 1.207 8.1162 3.3446 10.351 5.3417-20.319 15.498-26.322 20.768-36.396 1.8212-3.4813-1.607-14.844-3.1141-20.011-1.5071-5.1672-9.4727-17.871-10.765-20.239-1.2918-2.3683-7.9658-25.621-39.615-54.687-31.649-29.066-101.19-26.481-101.19-26.481-9.5119-8.9457-47.595-47.898-56.684-48.166zm104.97 97.129c-9.4509 9.4988-32.376 15.117-55.721 65.768-25.436 55.188 7.9171 84.645 28.926 89.822 19.26 4.7452 49.021-3.6539 49.021-3.6539s-20.943 14.633-49.935 8.222c-31.656-7.0007-53.745-42.595-33.493-92.868 15.489-38.45 48.213-66.702 61.202-67.29zm32.579 51.488a25.272 25.272 0 0 1 25.272 25.272 25.272 25.272 0 0 1-25.272 25.272 25.272 25.272 0 0 1-25.271-25.272 25.272 25.272 0 0 1 25.271-25.272z" fill="#00c7e0"/>
 </g>
</svg>
